# xmcd
# 
# Track frame offsets:
#	150
#	13450
#	27380
#	40400
#	52870
#	65217
#	77025
#	89695
#	101942
#	115087
#	129512
#	144025
#	155800
#	170800
#	183017
#	194712
#
# Disc length: 2781 seconds
#
# Revision: 1
# Processed by: cddbd v1.4PL0 Copyright (c) Steve Scherf et al.
# Submitted via: Audio-CD-Archiv 2.10.446
#
DISCID=ea0adb10
DTITLE=East Coast Blues in the Thirties - 1934 - 1939
DYEAR=1900
DGENRE=blues
TTITLE0=Bob Campbell - Dice's Blues
TTITLE1=Bob Campbell - Shotgun Blues
TTITLE2=Bob Campbell - Starvation Farm Blues
TTITLE3=Bob Campbell - Worried All The Time
TTITLE4=Tampa Kid - Keep On Trying
TTITLE5=Tampa Kid - Baby Please Don't Go
TTITLE6=Poor Bill - Way Up On The Mountain
TTITLE7=Poor Bill - A Hundred Women
TTITLE8=Sam Montgomery - King Of Knave
TTITLE9=Sam Montgomery - King Of Knave No. 2
TTITLE10=Sam Montgomery - Blue Devil Blues
TTITLE11=Sam Montgomery - Mercy Mercy Blues
TTITLE12=Sam Montgomery - Low In Mind Blues
TTITLE13=Sam Montgomery - Baby Please Don't Go
TTITLE14=Sam Montgomery - I'm Through With You
TTITLE15=Sam Montgomery - Honey Dripper
EXTD=
EXTT0=
EXTT1=
EXTT2=
EXTT3=
EXTT4=
EXTT5=
EXTT6=
EXTT7=
EXTT8=
EXTT9=
EXTT10=
EXTT11=
EXTT12=
EXTT13=
EXTT14=
EXTT15=
PLAYORDER=
